<?xml version="1.0" encoding="utf-8"?>
<!-- Generator: Adobe Illustrator 16.2.1, SVG Export Plug-In . SVG Version: 6.00 Build 0)  -->
<!DOCTYPE svg PUBLIC "-//W3C//DTD SVG 1.1//EN" "http://www.w3.org/Graphics/SVG/1.1/DTD/svg11.dtd">
<svg version="1.1" id="Livello_1" xmlns="http://www.w3.org/2000/svg" xmlns:xlink="http://www.w3.org/1999/xlink" x="0px" y="0px"
	 width="453.444px" height="338.141px" viewBox="0 0 453.444 338.141" enable-background="new 0 0 453.444 338.141"
	 xml:space="preserve">
<g>
	<path fill="#080357" d="M56.409,322.84c-16.192,0-35.241-1.905-35.241-10.478V11.388h6.667c0,2.381,9.524,6.667,28.098,6.667
		c18.572,0,28.097-4.286,28.097-6.667h6.668v300.974C91.173,320.934,72.124,322.84,56.409,322.84z M28.312,311.885
		c1.905,1.905,11.905,3.811,28.098,3.811c16.191,0,26.191-2.382,28.097-3.811V20.436c-9.048,4.286-23.812,4.763-28.097,4.763
		c-3.811,0-19.05-0.477-28.098-4.763V311.885z"/>
</g>
<g>
	<path fill="#080357" d="M119.271,322.84c-23.335,0-34.765-3.334-34.765-9.525V37.104h6.667c0,1.429,8.572,6.191,28.098,6.191
		s28.097-4.286,28.097-6.191h6.668v276.21C154.035,319.506,142.129,322.84,119.271,322.84z M91.173,312.362
		c2.382,1.429,11.906,3.81,28.098,3.81s25.716-1.904,28.097-3.81V45.2c-8.571,3.81-22.382,4.286-28.097,4.286
		S99.745,49.01,91.173,45.2V312.362z"/>
</g>
<g>
	<path fill="#080357" d="M182.132,322.84c-15.715,0-34.765-1.905-34.765-10.478V4.245h6.668c0,2.857,10.477,7.144,28.097,7.144
		s28.097-4.286,28.097-7.144h6.668v307.641C216.897,320.934,198.323,322.84,182.132,322.84z M154.035,13.769v298.593
		c0.952,0.952,10.477,3.81,28.097,3.81c16.668,0,26.192-2.381,28.097-4.286V13.769c-6.667,3.334-17.62,4.763-28.097,4.763
		S160.702,17.103,154.035,13.769z"/>
</g>
<g>
	<rect x="39.741" y="30.437" fill="#080357" width="31.906" height="6.667"/>
</g>
<g>
	<rect x="39.741" y="42.819" fill="#080357" width="31.906" height="6.667"/>
</g>
<g>
	<rect x="39.741" y="55.677" fill="#080357" width="31.906" height="6.667"/>
</g>
<g>
	<rect x="40.217" y="290.456" fill="#080357" width="31.907" height="6.667"/>
</g>
<g>
	<rect x="103.079" y="284.741" fill="#080357" width="31.906" height="6.667"/>
</g>
<g>
	<rect x="106.412" y="93.299" fill="#080357" width="6.667" height="152.393"/>
</g>
<g>
	<rect x="124.986" y="93.299" fill="#080357" width="6.667" height="152.393"/>
</g>
<g>
	
		<rect x="150.696" y="284.725" transform="matrix(-0.9998 0.0176 -0.0176 -0.9998 369.2829 572.8721)" fill="#080357" width="62.858" height="6.666"/>
</g>
<g>
	
		<rect x="150.689" y="42.814" transform="matrix(-0.9998 0.0176 -0.0176 -0.9998 365.0195 89.0883)" fill="#080357" width="62.859" height="6.667"/>
</g>
<g>
	<path fill="#080357" d="M272.615,68.059c0.477,2.381-8.572,8.571-25.24,13.334c-16.667,4.762-28.097,4.286-28.573,2.381
		l-6.667,1.429l69.528,242.875c1.905,6.667,20.479,2.857,35.717-1.429c15.239-4.286,33.336-10.953,30.955-18.097L279.281,66.154
		L272.615,68.059z M335,285.218l-53.813,16.191l-47.623-164.773l54.29-16.192L335,285.218z M285.948,114.729l-53.813,16.191
		l-2.381-9.049l53.813-16.191L285.948,114.729z M248.803,86.632c10.001-2.857,20.002-7.144,25.717-11.43l7.143,25.24l-53.812,16.191
		l-7.62-26.192C227.85,91.394,238.803,89.489,248.803,86.632z M316.427,320.934c-16.668,4.762-26.668,5.238-27.621,4.762
		l-5.715-19.049l53.813-16.191l5.715,19.525C340.715,311.885,332.618,316.172,316.427,320.934z"/>
	
		<rect x="280.712" y="145.248" transform="matrix(-0.961 0.2765 -0.2765 -0.961 614.4335 328.6231)" fill="#080357" width="6.667" height="124.773"/>
</g>
<g>
	<path fill="#080357" d="M341.191,63.297c0.952,2.381-7.619,9.524-23.812,16.191c-16.191,6.667-27.145,7.62-28.097,5.238
		l-6.191,2.857l97.626,232.874c2.857,6.667,20.954,0.477,35.717-5.715c14.764-6.19,31.432-14.763,29.05-21.43L347.382,60.916
		L341.191,63.297z M428.34,271.884l-51.433,22.382l-66.195-158.106l51.433-22.383L428.34,271.884z M359.764,108.538l-51.433,22.383
		l-3.81-8.572l51.432-22.383L359.764,108.538z M319.761,84.726c9.524-3.81,19.049-9.048,24.287-14.286l10.001,24.287l-51.433,22.383
		L292.14,91.87C299.759,91.87,310.237,89.012,319.761,84.726z M413.576,309.981c-16.191,6.667-25.716,8.572-27.145,8.096
		l-7.619-18.573l51.432-22.382l7.62,18.572C437.388,297.599,429.292,303.314,413.576,309.981z"/>
	
		<rect x="365.506" y="138.531" transform="matrix(-0.9226 0.3858 -0.3858 -0.9226 786.6414 243.9671)" fill="#080357" width="6.667" height="124.778"/>
</g>
<g>
	<rect x="170.702" y="150.446" fill="#080357" width="25.24" height="6.667"/>
</g>
<g>
	<rect x="170.702" y="116.158" fill="#080357" width="25.24" height="6.667"/>
</g>
<g>
	<rect x="150.701" y="59.963" fill="#080357" width="62.861" height="4.763"/>
</g>
<g>
	<rect x="150.701" y="72.821" fill="#080357" width="62.861" height="4.763"/>
</g>
</svg>
